<?xml version="1.0" encoding="UTF-8" standalone="no"?>
<svg width="683px" height="221px" viewBox="0 0 683 221" version="1.1" xmlns="http://www.w3.org/2000/svg" xmlns:xlink="http://www.w3.org/1999/xlink">
    <!-- Generator: Sketch 42 (36781) - http://www.bohemiancoding.com/sketch -->
    <title>paths</title>
    <desc>Created with Sketch.</desc>
    <defs></defs>
    <g id="Page-1" stroke="none" stroke-width="1" fill="none" fill-rule="evenodd">
        <g id="paths" stroke="#FF0000" stroke-width="2">
            <path d="M59,134.199657 L67.7727903,134.199657 L67.7727903,90.6295307 L59,90.6295307 L59,134.199657 Z M59,81.7727903 L67.7727903,81.7727903 L67.7727903,73 L59,73 L59,81.7727903 Z M122.844086,134.199657 L122.844086,130.33795 L122.676186,130.33795 C121.864664,131.821076 120.605424,132.912417 118.898429,133.612006 C117.219418,134.339577 114.89682,134.703357 111.930567,134.703357 C107.061434,134.64739 103.311699,133.360168 100.681248,130.841651 C97.9108789,128.379101 96.5257153,125.231002 96.5257153,121.397259 C96.5257153,117.731418 97.7289887,114.695251 100.135572,112.288668 C102.542154,109.826118 106.068025,108.566879 110.71329,108.510912 L122.844086,108.510912 L122.844086,103.935629 C122.900053,100.101886 119.919853,98.24101 113.903396,98.3529441 C111.720681,98.3529441 109.99972,98.5768089 108.740462,99.0245453 C107.425236,99.5562322 106.389861,100.451691 105.634306,101.71095 L98.7503942,96.4640658 C102.080433,92.0986364 106.991468,89.9719206 113.483645,90.0838547 C118.968415,90.0278877 123.347771,91.0632625 126.621843,93.1900101 C129.895915,95.3727249 131.560909,99.1224606 131.616876,104.43933 L131.616876,134.199657 L122.844086,134.199657 Z M122.844086,118.878755 L122.844086,115.730624 L112.350318,115.730624 C107.257317,115.842558 104.738838,117.591502 104.794805,120.977509 C104.794805,122.460635 105.452408,123.719875 106.767633,124.755265 C108.026892,125.902589 110.111633,126.476243 113.021919,126.476243 C116.68776,126.53221 119.276197,126.098472 120.787308,125.175016 C122.1585,124.25156 122.844086,122.152827 122.844086,118.878755 Z M143.453847,134.199657 L152.226637,134.199657 L152.226637,108.259061 C152.226637,105.208857 153.06613,102.88626 154.745142,101.291199 C156.340202,99.668155 158.39696,98.856645 160.915477,98.856645 C163.433994,98.856645 165.504744,99.668155 167.127788,101.291199 C168.722849,102.88626 169.520367,105.208857 169.520367,108.259061 L169.520367,134.199657 L178.293158,134.199657 L178.293158,108.259061 C178.293158,105.208857 179.118659,102.88626 180.769687,101.291199 C182.392731,99.668155 184.463481,98.856645 186.981998,98.856645 C189.500515,98.856645 191.557273,99.668155 193.152334,101.291199 C194.747394,102.88626 195.544913,105.208857 195.544913,108.259061 L195.544913,134.199657 L204.317703,134.199657 L204.317703,105.236856 C204.205769,100.255789 202.666698,96.4780704 199.700445,93.9035864 C196.706208,91.3570859 193.404202,90.0838547 189.794328,90.0838547 C184.057706,90.0278877 179.482468,91.9307386 176.068479,95.7924647 C174.557369,94.1134534 172.892374,92.7282898 171.073445,91.6369324 C169.226533,90.6575092 166.792003,90.1398218 163.769782,90.0838547 C159.068551,90.0838547 155.27684,91.8048155 152.394538,95.2467887 L152.226637,95.2467887 L152.226637,90.6295307 L143.453847,90.6295307 L143.453847,134.199657 Z M237.31011,134.199657 L246.082901,134.199657 L246.082901,108.259061 C246.082901,105.208857 246.922394,102.88626 248.601405,101.291199 C250.196466,99.668155 252.253224,98.856645 254.771741,98.856645 C257.290258,98.856645 259.361007,99.668155 260.984052,101.291199 C262.579112,102.88626 263.376631,105.208857 263.376631,108.259061 L263.376631,134.199657 L272.149421,134.199657 L272.149421,108.259061 C272.149421,105.208857 272.974923,102.88626 274.62595,101.291199 C276.248995,99.668155 278.319744,98.856645 280.838261,98.856645 C283.356778,98.856645 285.413536,99.668155 287.008597,101.291199 C288.603658,102.88626 289.401176,105.208857 289.401176,108.259061 L289.401176,134.199657 L298.173966,134.199657 L298.173966,105.236856 C298.062032,100.255789 296.522962,96.4780704 293.556708,93.9035864 C290.562471,91.3570859 287.260465,90.0838547 283.650591,90.0838547 C277.913969,90.0278877 273.338732,91.9307386 269.924742,95.7924647 C268.413632,94.1134534 266.748637,92.7282898 264.929708,91.6369324 C263.082796,90.6575092 260.648266,90.1398218 257.626046,90.0838547 C252.924814,90.0838547 249.133104,91.8048155 246.250801,95.2467887 L246.082901,95.2467887 L246.082901,90.6295307 L237.31011,90.6295307 L237.31011,134.199657 Z M332.929327,134.199657 L332.929327,130.33795 L332.761427,130.33795 C331.949904,131.821076 330.690665,132.912417 328.98367,133.612006 C327.304659,134.339577 324.982061,134.703357 322.015808,134.703357 C317.146675,134.64739 313.396939,133.360168 310.766488,130.841651 C307.99612,128.379101 306.610956,125.231002 306.610956,121.397259 C306.610956,117.731418 307.814229,114.695251 310.220812,112.288668 C312.627395,109.826118 316.153266,108.566879 320.798531,108.510912 L332.929327,108.510912 L332.929327,103.935629 C332.985294,100.101886 330.005093,98.24101 323.988636,98.3529441 C321.805922,98.3529441 320.084961,98.5768089 318.825702,99.0245453 C317.510477,99.5562322 316.475102,100.451691 315.719547,101.71095 L308.835635,96.4640658 C312.165674,92.0986364 317.076708,89.9719206 323.568886,90.0838547 C329.053656,90.0278877 333.433011,91.0632625 336.707083,93.1900101 C339.981155,95.3727249 341.64615,99.1224606 341.702117,104.43933 L341.702117,134.199657 L332.929327,134.199657 Z M332.929327,118.878755 L332.929327,115.730624 L322.435559,115.730624 C317.342558,115.842558 314.824078,117.591502 314.880045,120.977509 C314.880045,122.460635 315.537648,123.719875 316.852874,124.755265 C318.112132,125.902589 320.196873,126.476243 323.10716,126.476243 C326.773001,126.53221 329.361438,126.098472 330.872548,125.175016 C332.243741,124.25156 332.929327,122.152827 332.929327,118.878755 Z M378.640181,121.397259 C376.429483,124.363513 373.477266,125.8746 369.783441,125.930567 C362.339824,126.070485 358.562105,121.579197 358.450171,112.456569 C358.562105,103.277973 362.339824,98.7447109 369.783441,98.856645 C373.477266,98.9685791 376.429483,100.493658 378.640181,103.431928 L385.104343,97.681343 C383.201463,95.3866942 380.962815,93.553801 378.388331,92.1826084 C375.813847,90.8393993 372.833647,90.1398218 369.44764,90.0838547 C364.298672,90.0278877 359.779401,91.7488485 355.889692,95.2467887 C351.860065,98.800696 349.789315,104.537232 349.677381,112.456569 C349.789315,120.291955 351.860065,125.958533 355.889692,129.456473 C359.779401,132.954414 364.298672,134.703357 369.44764,134.703357 C372.833647,134.64739 375.813847,133.905838 378.388331,132.478679 C380.962815,131.107486 383.201463,129.330559 385.104343,127.147844 L378.640181,121.397259 Z M391.694429,90.6295307 L387.329022,90.6295307 L387.329022,97.3035673 L391.694429,97.3035673 L391.694429,123.454038 C391.694429,126.896011 392.701821,129.526423 394.716634,131.345352 C396.675481,133.248231 399.19396,134.199657 402.272148,134.199657 L406.84743,134.199657 L406.84743,125.930567 L403.573375,125.930567 C401.446627,125.986534 400.411252,124.909185 400.467219,122.698487 L400.467219,97.3035673 L406.84743,97.3035673 L406.84743,90.6295307 L400.467219,90.6295307 L400.467219,77.3654076 L391.694429,77.3654076 L391.694429,90.6295307 Z M415.326395,134.199657 L424.099186,134.199657 L424.099186,90.6295307 L415.326395,90.6295307 L415.326395,134.199657 Z M415.326395,81.7727903 L424.099186,81.7727903 L424.099186,73 L415.326395,73 L415.326395,81.7727903 Z M445.506473,134.199657 L452.726185,134.199657 L468.718688,90.6295307 L459.400222,90.6295307 L449.200279,121.145409 L449.032379,121.145409 L438.790461,90.6295307 L429.51397,90.6295307 L445.506473,134.199657 Z M507.12588,115.730624 L479.968008,115.730624 C479.968008,119.228565 480.975399,121.886959 482.990213,123.705888 C484.865109,125.552801 487.327622,126.476243 490.377826,126.476243 C493.931733,126.476243 497.107815,125.063096 499.906167,122.236761 L506.244403,127.651545 C501.795024,132.408744 496.562183,134.759324 490.545726,134.703357 C488.251077,134.703357 486.012429,134.36756 483.829714,133.695956 C482.738357,133.33217 481.674999,132.842466 480.639609,132.226828 C479.548252,131.695141 478.526868,131.037538 477.575429,130.254 C475.728516,128.630955 474.23142,126.364324 473.084096,123.454038 C471.824837,120.655686 471.195217,117.017882 471.195217,112.540519 C471.195217,108.231056 471.740888,104.649219 472.832245,101.7949 C473.923603,98.8846138 475.322758,96.5899995 477.029753,94.9109881 C478.764731,93.2039933 480.709557,91.9727368 482.864288,91.2171817 C484.991035,90.4616266 487.089768,90.0838547 489.160549,90.0838547 C494.141616,90.1398218 498.353073,91.7768333 501.795046,94.9949383 C505.292986,98.2690104 507.069913,102.77429 507.12588,108.510912 L507.12588,115.730624 Z M479.968008,108.510912 L498.35309,108.510912 C498.241156,105.124906 497.331705,102.564452 495.62471,100.829473 C493.945699,99.1784456 491.791,98.3529441 489.160549,98.3529441 C486.530098,98.3529441 484.375399,99.1784456 482.696388,100.829473 C481.04536,102.564452 480.135909,105.124906 479.968008,108.510912 Z M519.508527,119.08863 L523.873934,119.08863 L527.23194,73 L516.234471,73 L519.508527,119.08863 Z M517.367798,134.199657 L526.140588,134.199657 L526.140588,125.426866 L517.367798,125.426866 L517.367798,134.199657 Z M541.671365,119.08863 L546.036773,119.08863 L549.394779,73 L538.397309,73 L541.671365,119.08863 Z M539.530636,134.199657 L548.303427,134.199657 L548.303427,125.426866 L539.530636,125.426866 L539.530636,134.199657 Z M563.834204,119.08863 L568.199611,119.08863 L571.557617,73 L560.560148,73 L563.834204,119.08863 Z M561.693475,134.199657 L570.466265,134.199657 L570.466265,125.426866 L561.693475,125.426866 L561.693475,134.199657 Z" id="i-am-mactive!!!"></path>
        </g>
    </g>
</svg>